{
 "accessors": [
  {
   "componentType": 5126,
   "type": "VEC3",
   "count": 4040,
   "max": [
    90.177001953125,
    -44.476200103759766,
    6.668600082397461
   ],
   "min": [
    24.124000549316406,
    -58.808998107910156,
    0.8230000138282776
   ],
   "bufferView": 0
  },
  {
   "componentType": 5126,
   "type": "VEC3",
   "count": 4040,
   "bufferView": 1
  },
  {
   "componentType": 5123,
   "type": "SCALAR",
   "count": 9957,
   "bufferView": 2
  },
  {
   "componentType": 5126,
   "type": "VEC3",
   "count": 1289,
   "max": [
    -16,
    -31,
    32
   ],
   "min": [
    -48,
    -62.95800018310547,
    17
   ],
   "bufferView": 3
  },
  {
   "componentType": 5126,
   "type": "VEC3",
   "count": 1289,
   "bufferView": 4
  },
  {
   "componentType": 5123,
   "type": "SCALAR",
   "count": 4395,
   "bufferView": 5
  },
  {
   "componentType": 5126,
   "type": "VEC3",
   "count": 17698,
   "max": [
    88.06099700927734,
    -24.674999237060547,
    94.34359741210938
   ],
   "min": [
    26.239999771118164,
    -73,
    0
   ],
   "bufferView": 6
  },
  {
   "componentType": 5126,
   "type": "VEC3",
   "count": 17698,
   "bufferView": 7
  },
  {
   "componentType": 5123,
   "type": "SCALAR",
   "count": 43974,
   "bufferView": 8
  },
  {
   "componentType": 5126,
   "type": "VEC3",
   "count": 7573,
   "max": [
    108.36000061035156,
    -7.822999954223633,
    101.5999984741211
   ],
   "min": [
    5.940000057220459,
    -66.24929809570312,
    5.750999927520752
   ],
   "bufferView": 9
  },
  {
   "componentType": 5126,
   "type": "VEC3",
   "count": 7573,
   "bufferView": 10
  },
  {
   "componentType": 5123,
   "type": "SCALAR",
   "count": 17598,
   "bufferView": 11
  },
  {
   "componentType": 5126,
   "type": "VEC3",
   "count": 3679,
   "max": [
    70.03060150146484,
    -31,
    86.51860046386719
   ],
   "min": [
    -48,
    -64,
    13
   ],
   "bufferView": 12
  },
  {
   "componentType": 5126,
   "type": "VEC3",
   "count": 3679,
   "bufferView": 13
  },
  {
   "componentType": 5123,
   "type": "SCALAR",
   "count": 9516,
   "bufferView": 14
  },
  {
   "componentType": 5126,
   "type": "VEC3",
   "count": 17946,
   "max": [
    108.302001953125,
    -31,
    80.89800262451172
   ],
   "min": [
    -48,
    -65.5,
    -0.024000000208616257
   ],
   "bufferView": 15
  },
  {
   "componentType": 5126,
   "type": "VEC3",
   "count": 17946,
   "bufferView": 16
  },
  {
   "componentType": 5123,
   "type": "SCALAR",
   "count": 47964,
   "bufferView": 17
  }
 ],
 "asset": {
  "version": "2.0",
  "generator": "clara.io"
 },
 "bufferViews": [
  {
   "buffer": 0,
   "byteOffset": 0,
   "byteLength": 48480,
   "target": 34962,
   "byteStride": 12
  },
  {
   "buffer": 0,
   "byteOffset": 48480,
   "byteLength": 48480,
   "target": 34962,
   "byteStride": 12
  },
  {
   "buffer": 0,
   "byteOffset": 96960,
   "byteLength": 19914,
   "target": 34963
  },
  {
   "buffer": 0,
   "byteOffset": 116876,
   "byteLength": 15468,
   "target": 34962,
   "byteStride": 12
  },
  {
   "buffer": 0,
   "byteOffset": 132344,
   "byteLength": 15468,
   "target": 34962,
   "byteStride": 12
  },
  {
   "buffer": 0,
   "byteOffset": 147812,
   "byteLength": 8790,
   "target": 34963
  },
  {
   "buffer": 0,
   "byteOffset": 156604,
   "byteLength": 212376,
   "target": 34962,
   "byteStride": 12
  },
  {
   "buffer": 0,
   "byteOffset": 368980,
   "byteLength": 212376,
   "target": 34962,
   "byteStride": 12
  },
  {
   "buffer": 0,
   "byteOffset": 581356,
   "byteLength": 87948,
   "target": 34963
  },
  {
   "buffer": 0,
   "byteOffset": 669304,
   "byteLength": 90876,
   "target": 34962,
   "byteStride": 12
  },
  {
   "buffer": 0,
   "byteOffset": 760180,
   "byteLength": 90876,
   "target": 34962,
   "byteStride": 12
  },
  {
   "buffer": 0,
   "byteOffset": 851056,
   "byteLength": 35196,
   "target": 34963
  },
  {
   "buffer": 0,
   "byteOffset": 886252,
   "byteLength": 44148,
   "target": 34962,
   "byteStride": 12
  },
  {
   "buffer": 0,
   "byteOffset": 930400,
   "byteLength": 44148,
   "target": 34962,
   "byteStride": 12
  },
  {
   "buffer": 0,
   "byteOffset": 974548,
   "byteLength": 19032,
   "target": 34963
  },
  {
   "buffer": 0,
   "byteOffset": 993580,
   "byteLength": 215352,
   "target": 34962,
   "byteStride": 12
  },
  {
   "buffer": 0,
   "byteOffset": 1208932,
   "byteLength": 215352,
   "target": 34962,
   "byteStride": 12
  },
  {
   "buffer": 0,
   "byteOffset": 1424284,
   "byteLength": 95928,
   "target": 34963
  }
 ],
 "buffers": [
  {
   "byteLength": 1520212,
   "uri": "data:application/octet-stream;base64,"
  }
 ],
 "materials": [
  {
   "name": "color_14541540",
   "pbrMetallicRoughness": {
    "baseColorFactor": [
     0.8666666666666667,
     0.8862745098039215,
     0.8941176470588236,
     1
    ],
    "roughnessFactor": 0.25,
    "metallicFactor": 0
   }
  },
  {
   "name": "color_15277357",
   "pbrMetallicRoughness": {
    "baseColorFactor": [
     0.9137254901960784,
     0.11372549019607843,
     0.17647058823529413,
     1
    ],
    "roughnessFactor": 0.25,
    "metallicFactor": 0
   }
  },
  {
   "name": "color_16311991",
   "pbrMetallicRoughness": {
    "baseColorFactor": [
     0.9725490196078431,
     0.9019607843137255,
     0.7176470588235294,
     1
    ],
    "roughnessFactor": 0.25,
    "metallicFactor": 0
   }
  },
  {
   "name": "color_16448250",
   "pbrMetallicRoughness": {
    "baseColorFactor": [
     0.9803921568627451,
     0.9803921568627451,
     0.9803921568627451,
     1
    ],
    "roughnessFactor": 0.25,
    "metallicFactor": 0
   }
  },
  {
   "name": "color_1855578",
   "pbrMetallicRoughness": {
    "baseColorFactor": [
     0.10980392156862745,
     0.3137254901960784,
     0.35294117647058826,
     1
    ],
    "roughnessFactor": 0.25,
    "metallicFactor": 0
   }
  },
  {
   "name": "color_2829873",
   "pbrMetallicRoughness": {
    "baseColorFactor": [
     0.16862745098039217,
     0.1803921568627451,
     0.19215686274509805,
     1
    ],
    "roughnessFactor": 0.25,
    "metallicFactor": 0
   }
  }
 ],
 "meshes": [
  {
   "primitives": [
    {
     "indices": 2,
     "material": 0,
     "mode": 4,
     "attributes": {
      "POSITION": 0,
      "NORMAL": 1
     }
    }
   ]
  },
  {
   "primitives": [
    {
     "indices": 5,
     "material": 1,
     "mode": 4,
     "attributes": {
      "POSITION": 3,
      "NORMAL": 4
     }
    }
   ]
  },
  {
   "primitives": [
    {
     "indices": 8,
     "material": 2,
     "mode": 4,
     "attributes": {
      "POSITION": 6,
      "NORMAL": 7
     }
    }
   ]
  },
  {
   "primitives": [
    {
     "indices": 11,
     "material": 4,
     "mode": 4,
     "attributes": {
      "POSITION": 9,
      "NORMAL": 10
     }
    }
   ]
  },
  {
   "primitives": [
    {
     "indices": 14,
     "material": 5,
     "mode": 4,
     "attributes": {
      "POSITION": 12,
      "NORMAL": 13
     }
    }
   ]
  },
  {
   "primitives": [
    {
     "indices": 17,
     "material": 3,
     "mode": 4,
     "attributes": {
      "POSITION": 15,
      "NORMAL": 16
     }
    }
   ]
  }
 ],
 "nodes": [
  {
   "name": "tinker_root",
   "translation": [
    0.00570000009611249,
    -0.03440000116825104,
    0
   ],
   "rotation": [
    -0.42021804638135196,
    -0.11160948362549214,
    -0.05422744800289168,
    0.8988990510346937
   ],
   "scale": [
    0.010000000090977122,
    0.009999999828695651,
    0.009999999957867385
   ],
   "children": [
    3,
    4,
    5,
    6,
    7,
    8
   ]
  },
  {
   "name": "Model1",
   "translation": [
    0.00570000009611249,
    -0.03440000116825104,
    0
   ],
   "rotation": [
    -0.42789002024273853,
    -0.10869985063477491,
    -0.0601256564583644,
    0.8952538099908276
   ]
  },
  {
   "name": "Null",
   "translation": [
    0.00570000009611249,
    -0.03440000116825104,
    0
   ],
   "rotation": [
    -0.42789002024273853,
    -0.10869985063477491,
    -0.0601256564583644,
    0.8952538099908276
   ]
  },
  {
   "name": "group_0_14541540",
   "rotation": [
    -0.3904127148952621,
    -0.025444553823077778,
    -0.12569007886168632,
    0.9116646869127675
   ],
   "mesh": 0
  },
  {
   "name": "group_0_15277357",
   "rotation": [
    -0.3931810412295404,
    -0.0303472178393642,
    -0.12424492269759042,
    0.9105223218306846
   ],
   "mesh": 1
  },
  {
   "name": "group_0_16311991",
   "rotation": [
    -0.3904127148952621,
    -0.025444553823077778,
    -0.12569007886168632,
    0.9116646869127675
   ],
   "mesh": 2
  },
  {
   "name": "group_0_1855578",
   "rotation": [
    -0.3904127148952621,
    -0.025444553823077778,
    -0.12569007886168632,
    0.9116646869127675
   ],
   "mesh": 3
  },
  {
   "name": "group_0_2829873",
   "rotation": [
    -0.3931810412295404,
    -0.0303472178393642,
    -0.12424492269759042,
    0.9105223218306846
   ],
   "mesh": 4
  },
  {
   "name": "group_0_16448250",
   "rotation": [
    -0.3904127148952621,
    -0.025444553823077778,
    -0.12569007886168632,
    0.9116646869127675
   ],
   "mesh": 5
  }
 ],
 "scene": 0,
 "scenes": [
  {
   "nodes": [
    0,
    1,
    2
   ]
  }
 ]
}